<svg xmlns="http://www.w3.org/2000/svg" viewBox="0 0 120 360">
  <ellipse cx="60" cy="80" rx="50" ry="10" fill="#222"/>
  <ellipse cx="60" cy="78" rx="50" ry="10" fill="#1565c0" stroke="#1e88e5" stroke-width="1"/>
  <ellipse cx="60" cy="76" rx="50" ry="10" fill="#1e88e5"/>
  <ellipse cx="60" cy="74" rx="50" ry="10" fill="#1565c0" stroke="#1e88e5" stroke-width="1"/>
  <ellipse cx="60" cy="108" rx="50" ry="10" fill="#222"/>
  <ellipse cx="60" cy="106" rx="50" ry="10" fill="#1565c0" stroke="#1e88e5" stroke-width="1"/>
  <ellipse cx="60" cy="104" rx="50" ry="10" fill="#1e88e5"/>
  <ellipse cx="60" cy="102" rx="50" ry="10" fill="#1565c0" stroke="#1e88e5" stroke-width="1"/>
  <ellipse cx="60" cy="136" rx="50" ry="10" fill="#222"/>
  <ellipse cx="60" cy="134" rx="50" ry="10" fill="#1565c0" stroke="#1e88e5" stroke-width="1"/>
  <ellipse cx="60" cy="132" rx="50" ry="10" fill="#1e88e5"/>
  <ellipse cx="60" cy="130" rx="50" ry="10" fill="#1565c0" stroke="#1e88e5" stroke-width="1"/>
  <ellipse cx="60" cy="164" rx="50" ry="10" fill="#222"/>
  <ellipse cx="60" cy="162" rx="50" ry="10" fill="#1565c0" stroke="#1e88e5" stroke-width="1"/>
  <ellipse cx="60" cy="160" rx="50" ry="10" fill="#1e88e5"/>
  <ellipse cx="60" cy="158" rx="50" ry="10" fill="#1565c0" stroke="#1e88e5" stroke-width="1"/>
  <ellipse cx="60" cy="192" rx="50" ry="10" fill="#222"/>
  <ellipse cx="60" cy="190" rx="50" ry="10" fill="#1565c0" stroke="#1e88e5" stroke-width="1"/>
  <ellipse cx="60" cy="188" rx="50" ry="10" fill="#1e88e5"/>
  <ellipse cx="60" cy="186" rx="50" ry="10" fill="#1565c0" stroke="#1e88e5" stroke-width="1"/>
  <ellipse cx="60" cy="220" rx="50" ry="10" fill="#222"/>
  <ellipse cx="60" cy="218" rx="50" ry="10" fill="#1565c0" stroke="#1e88e5" stroke-width="1"/>
  <ellipse cx="60" cy="216" rx="50" ry="10" fill="#1e88e5"/>
  <ellipse cx="60" cy="214" rx="50" ry="10" fill="#1565c0" stroke="#1e88e5" stroke-width="1"/>
  <ellipse cx="60" cy="248" rx="50" ry="10" fill="#222"/>
  <ellipse cx="60" cy="246" rx="50" ry="10" fill="#1565c0" stroke="#1e88e5" stroke-width="1"/>
  <ellipse cx="60" cy="244" rx="50" ry="10" fill="#1e88e5"/>
  <ellipse cx="60" cy="242" rx="50" ry="10" fill="#1565c0" stroke="#1e88e5" stroke-width="1"/>
  <ellipse cx="60" cy="276" rx="50" ry="10" fill="#222"/>
  <ellipse cx="60" cy="274" rx="50" ry="10" fill="#1565c0" stroke="#1e88e5" stroke-width="1"/>
  <ellipse cx="60" cy="272" rx="50" ry="10" fill="#1e88e5"/>
  <ellipse cx="60" cy="270" rx="50" ry="10" fill="#1565c0" stroke="#1e88e5" stroke-width="1"/>
  <ellipse cx="60" cy="304" rx="50" ry="10" fill="#222"/>
  <ellipse cx="60" cy="302" rx="50" ry="10" fill="#1565c0" stroke="#1e88e5" stroke-width="1"/>
  <ellipse cx="60" cy="300" rx="50" ry="10" fill="#1e88e5"/>
  <ellipse cx="60" cy="298" rx="50" ry="10" fill="#1565c0" stroke="#1e88e5" stroke-width="1"/>
  <ellipse cx="60" cy="332" rx="50" ry="10" fill="#222"/>
  <ellipse cx="60" cy="330" rx="50" ry="10" fill="#1565c0" stroke="#1e88e5" stroke-width="1"/>
  <ellipse cx="60" cy="328" rx="50" ry="10" fill="#1e88e5"/>
  <ellipse cx="60" cy="326" rx="50" ry="10" fill="#1565c0" stroke="#1e88e5" stroke-width="1"/>
  <ellipse cx="60" cy="56" rx="50" ry="10" fill="#1565c0" stroke="#1e88e5" stroke-width="1.5"/>
  <text x="60" y="62" text-anchor="middle" font-family="Georgia,serif" font-size="12" font-weight="bold" fill="#fff">10</text>
</svg>